<svg xmlns="http://www.w3.org/2000/svg" viewBox="0 0 880 520" width="880" height="520">
  <defs>
    <linearGradient id="bg" x1="0%" y1="0%" x2="100%" y2="100%">
      <stop offset="0%" style="stop-color:#0f0c29"/>
      <stop offset="50%" style="stop-color:#302b63"/>
      <stop offset="100%" style="stop-color:#24243e"/>
    </linearGradient>
    <linearGradient id="amber" x1="0%" y1="0%" x2="100%" y2="0%">
      <stop offset="0%" style="stop-color:#f9a825"/>
      <stop offset="100%" style="stop-color:#ff6f00"/>
    </linearGradient>
    <filter id="glow">
      <feGaussianBlur stdDeviation="3" result="blur"/>
      <feMerge><feMergeNode in="blur"/><feMergeNode in="SourceGraphic"/></feMerge>
    </filter>
  </defs>

  <!-- Background -->
  <rect width="880" height="520" fill="url(#bg)" rx="16"/>

  <!-- User Input -->
  <rect x="290" y="28" width="300" height="42" rx="21" fill="none" stroke="#4a5a7a" stroke-width="1.5" stroke-dasharray="6,3"/>
  <text x="440" y="55" font-family="Segoe UI,system-ui,sans-serif" font-size="14" fill="#8899b4" text-anchor="middle">/metacog  your question here</text>

  <!-- Arrow down -->
  <line x1="440" y1="72" x2="440" y2="100" stroke="#f9a825" stroke-width="2"/>
  <polygon points="433,96 440,108 447,96" fill="#f9a825"/>

  <!-- Router -->
  <rect x="250" y="110" width="380" height="56" rx="28" fill="url(#amber)" filter="url(#glow)"/>
  <text x="440" y="136" font-family="Segoe UI,system-ui,sans-serif" font-size="16" font-weight="700" fill="#000" text-anchor="middle">Router | Auto-detect intent or parse keyword</text>
  <text x="440" y="155" font-family="Segoe UI,system-ui,sans-serif" font-size="11" fill="#5d4037" text-anchor="middle">路由器 · 自动识别意图或解析关键词</text>

  <!-- Fan-out arrows -->
  <g stroke="#f9a82580" stroke-width="1.5">
    <line x1="310" y1="166" x2="150" y2="220"/>
    <line x1="370" y1="166" x2="320" y2="220"/>
    <line x1="430" y1="166" x2="480" y2="220"/>
    <line x1="490" y1="166" x2="640" y2="220"/>
    <line x1="310" y1="166" x2="150" y2="370"/>
    <line x1="370" y1="166" x2="320" y2="370"/>
    <line x1="430" y1="166" x2="480" y2="370"/>
    <line x1="490" y1="166" x2="640" y2="370"/>
  </g>

  <!-- Row 1: Skills 1-4 -->
  <!-- cognition -->
  <rect x="60" y="220" width="180" height="110" rx="12" fill="#0d1b36" stroke="#1565c0" stroke-width="2"/>
  <rect x="60" y="220" width="180" height="4" rx="2" fill="#1565c0"/>
  <circle cx="85" cy="252" r="14" fill="#1565c020" stroke="#1565c0" stroke-width="1.5"/>
  <text x="85" y="257" font-family="Segoe UI,system-ui,sans-serif" font-size="13" fill="#90caf9" text-anchor="middle">&#128269;</text>
  <text x="108" y="250" font-family="Segoe UI,system-ui,sans-serif" font-size="14" font-weight="700" fill="#90caf9">cognition</text>
  <text x="108" y="268" font-family="Segoe UI,system-ui,sans-serif" font-size="11" fill="#5c6b8a">元认知</text>
  <text x="150" y="295" font-family="Segoe UI,system-ui,sans-serif" font-size="10" fill="#4a5a7a" text-anchor="middle">Bias &amp; logic analysis</text>
  <text x="150" y="310" font-family="Segoe UI,system-ui,sans-serif" font-size="10" fill="#3a4a6a" text-anchor="middle">Monitor → Evaluate → Regulate</text>

  <!-- learning -->
  <rect x="260" y="220" width="180" height="110" rx="12" fill="#0d1b36" stroke="#2e7d32" stroke-width="2"/>
  <rect x="260" y="220" width="180" height="4" rx="2" fill="#2e7d32"/>
  <circle cx="285" cy="252" r="14" fill="#2e7d3220" stroke="#2e7d32" stroke-width="1.5"/>
  <text x="285" y="257" font-family="Segoe UI,system-ui,sans-serif" font-size="13" fill="#a5d6a7" text-anchor="middle">&#128218;</text>
  <text x="308" y="250" font-family="Segoe UI,system-ui,sans-serif" font-size="14" font-weight="700" fill="#a5d6a7">learning</text>
  <text x="308" y="268" font-family="Segoe UI,system-ui,sans-serif" font-size="11" fill="#5c6b8a">元学习</text>
  <text x="350" y="295" font-family="Segoe UI,system-ui,sans-serif" font-size="10" fill="#4a5a7a" text-anchor="middle">Learning path design</text>
  <text x="350" y="310" font-family="Segoe UI,system-ui,sans-serif" font-size="10" fill="#3a4a6a" text-anchor="middle">Map → Path → Transfer</text>

  <!-- decision -->
  <rect x="460" y="220" width="180" height="110" rx="12" fill="#0d1b36" stroke="#6a1b9a" stroke-width="2"/>
  <rect x="460" y="220" width="180" height="4" rx="2" fill="#6a1b9a"/>
  <circle cx="485" cy="252" r="14" fill="#6a1b9a20" stroke="#6a1b9a" stroke-width="1.5"/>
  <text x="485" y="257" font-family="Segoe UI,system-ui,sans-serif" font-size="13" fill="#ce93d8" text-anchor="middle">&#9878;</text>
  <text x="508" y="250" font-family="Segoe UI,system-ui,sans-serif" font-size="14" font-weight="700" fill="#ce93d8">decision</text>
  <text x="508" y="268" font-family="Segoe UI,system-ui,sans-serif" font-size="11" fill="#5c6b8a">元决策</text>
  <text x="550" y="295" font-family="Segoe UI,system-ui,sans-serif" font-size="10" fill="#4a5a7a" text-anchor="middle">Trade-off &amp; pre-mortem</text>
  <text x="550" y="310" font-family="Segoe UI,system-ui,sans-serif" font-size="10" fill="#3a4a6a" text-anchor="middle">Frame → Analyze → Decide</text>

  <!-- structure -->
  <rect x="660" y="220" width="180" height="110" rx="12" fill="#0d1b36" stroke="#00838f" stroke-width="2"/>
  <rect x="660" y="220" width="180" height="4" rx="2" fill="#00838f"/>
  <circle cx="685" cy="252" r="14" fill="#00838f20" stroke="#00838f" stroke-width="1.5"/>
  <text x="685" y="257" font-family="Segoe UI,system-ui,sans-serif" font-size="13" fill="#80deea" text-anchor="middle">&#127959;</text>
  <text x="708" y="250" font-family="Segoe UI,system-ui,sans-serif" font-size="14" font-weight="700" fill="#80deea">structure</text>
  <text x="708" y="268" font-family="Segoe UI,system-ui,sans-serif" font-size="11" fill="#5c6b8a">元结构</text>
  <text x="750" y="295" font-family="Segoe UI,system-ui,sans-serif" font-size="10" fill="#4a5a7a" text-anchor="middle">MECE logical skeleton</text>
  <text x="750" y="310" font-family="Segoe UI,system-ui,sans-serif" font-size="10" fill="#3a4a6a" text-anchor="middle">Extract → Architect → Validate</text>

  <!-- Row 2: Skills 5-8 -->
  <!-- feedback -->
  <rect x="60" y="370" width="180" height="110" rx="12" fill="#0d1b36" stroke="#d84315" stroke-width="2"/>
  <rect x="60" y="370" width="180" height="4" rx="2" fill="#d84315"/>
  <circle cx="85" cy="402" r="14" fill="#d8431520" stroke="#d84315" stroke-width="1.5"/>
  <text x="85" y="407" font-family="Segoe UI,system-ui,sans-serif" font-size="13" fill="#ffab91" text-anchor="middle">&#127919;</text>
  <text x="108" y="400" font-family="Segoe UI,system-ui,sans-serif" font-size="14" font-weight="700" fill="#ffab91">feedback</text>
  <text x="108" y="418" font-family="Segoe UI,system-ui,sans-serif" font-size="11" fill="#5c6b8a">元反馈</text>
  <text x="150" y="445" font-family="Segoe UI,system-ui,sans-serif" font-size="10" fill="#4a5a7a" text-anchor="middle">Causal-chain analysis</text>
  <text x="150" y="460" font-family="Segoe UI,system-ui,sans-serif" font-size="10" fill="#3a4a6a" text-anchor="middle">Assess → Diagnose → Prescribe</text>

  <!-- review -->
  <rect x="260" y="370" width="180" height="110" rx="12" fill="#0d1b36" stroke="#546e7a" stroke-width="2"/>
  <rect x="260" y="370" width="180" height="4" rx="2" fill="#546e7a"/>
  <circle cx="285" cy="402" r="14" fill="#546e7a20" stroke="#546e7a" stroke-width="1.5"/>
  <text x="285" y="407" font-family="Segoe UI,system-ui,sans-serif" font-size="13" fill="#b0bec5" text-anchor="middle">&#128260;</text>
  <text x="308" y="400" font-family="Segoe UI,system-ui,sans-serif" font-size="14" font-weight="700" fill="#b0bec5">review</text>
  <text x="308" y="418" font-family="Segoe UI,system-ui,sans-serif" font-size="11" fill="#5c6b8a">元复盘</text>
  <text x="350" y="445" font-family="Segoe UI,system-ui,sans-serif" font-size="10" fill="#4a5a7a" text-anchor="middle">5 Whys &amp; SOP extraction</text>
  <text x="350" y="460" font-family="Segoe UI,system-ui,sans-serif" font-size="10" fill="#3a4a6a" text-anchor="middle">Reconstruct → Diagnose → Extract</text>

  <!-- emotion -->
  <rect x="460" y="370" width="180" height="110" rx="12" fill="#0d1b36" stroke="#ad1457" stroke-width="2"/>
  <rect x="460" y="370" width="180" height="4" rx="2" fill="#ad1457"/>
  <circle cx="485" cy="402" r="14" fill="#ad145720" stroke="#ad1457" stroke-width="1.5"/>
  <text x="485" y="407" font-family="Segoe UI,system-ui,sans-serif" font-size="13" fill="#f48fb1" text-anchor="middle">&#128161;</text>
  <text x="508" y="400" font-family="Segoe UI,system-ui,sans-serif" font-size="14" font-weight="700" fill="#f48fb1">emotion</text>
  <text x="508" y="418" font-family="Segoe UI,system-ui,sans-serif" font-size="11" fill="#5c6b8a">元情绪</text>
  <text x="550" y="445" font-family="Segoe UI,system-ui,sans-serif" font-size="10" fill="#4a5a7a" text-anchor="middle">Emotion-reasoning awareness</text>
  <text x="550" y="460" font-family="Segoe UI,system-ui,sans-serif" font-size="10" fill="#3a4a6a" text-anchor="middle">Identify → Analyze → Reappraise</text>

  <!-- communication -->
  <rect x="660" y="370" width="180" height="110" rx="12" fill="#0d1b36" stroke="#ef6c00" stroke-width="2"/>
  <rect x="660" y="370" width="180" height="4" rx="2" fill="#ef6c00"/>
  <circle cx="685" cy="402" r="14" fill="#ef6c0020" stroke="#ef6c00" stroke-width="1.5"/>
  <text x="685" y="407" font-family="Segoe UI,system-ui,sans-serif" font-size="13" fill="#ffcc80" text-anchor="middle">&#128483;</text>
  <text x="708" y="400" font-family="Segoe UI,system-ui,sans-serif" font-size="14" font-weight="700" fill="#ffcc80">communication</text>
  <text x="708" y="418" font-family="Segoe UI,system-ui,sans-serif" font-size="11" fill="#5c6b8a">元沟通</text>
  <text x="750" y="445" font-family="Segoe UI,system-ui,sans-serif" font-size="10" fill="#4a5a7a" text-anchor="middle">Meta-message decoding</text>
  <text x="750" y="460" font-family="Segoe UI,system-ui,sans-serif" font-size="10" fill="#3a4a6a" text-anchor="middle">Decode → Diagnose → Redesign</text>

  <!-- Bottom label -->
  <text x="440" y="508" font-family="Segoe UI,system-ui,sans-serif" font-size="11" fill="#3a4a6a" text-anchor="middle">All skills output: Bilingual headers · Confidence 1-10 · Reusable principle · Anti-flattery</text>
</svg>
